<svg xmlns="http://www.w3.org/2000/svg" class="variation-svg fade-enter-done" style="transform: scale(1);" viewBox="135.1 105.6 304.8 271.6"><image style="position: absolute;" preserveAspectRatio="xMinYMin meet" x="252.105" y="175.6" width="68.7904" height="87.9847" xmlns:xlink="http://www.w3.org/1999/xlink" xlink:href="https://fiverr-res.cloudinary.com/image/upload/f_png,q_auto,t_makers_project_variation_preview/v1/secured-attachments/makers_project_variation/preview_file/ba83b42d7b91119c25ceabb2a5cd6bac-1630625333/61315ded9f09c60013973b0c.svg?__cld_token__=exp=1665548634~hmac=10a5f89d281022a60c15003c2dd872a5b7d630313de33edb8617db2c8ab8b600" href="https://fiverr-res.cloudinary.com/image/upload/f_png,q_auto,t_makers_project_variation_preview/v1/secured-attachments/makers_project_variation/preview_file/ba83b42d7b91119c25ceabb2a5cd6bac-1630625333/61315ded9f09c60013973b0c.svg?__cld_token__=exp=1665548634~hmac=10a5f89d281022a60c15003c2dd872a5b7d630313de33edb8617db2c8ab8b600" /><g><svg style="position: absolute;" viewBox="2.48 6.5 164.8 17.9" x="205.1" y="289.3" width="164.8" height="17.9" data-layer-type="text"><g style="text-transform: uppercase; letter-spacing: 0.53em; font-family: Montserrat; font-size: 25px; font-style: normal; font-weight: 500; dominant-baseline: hanging; fill: rgb(0, 0, 0);" data-horizontal-grow="center"><path transform="translate(0)" d="M 9.88 24.4 L 9.88 24.4 Q 6.43 24.4 4.45 22.43 Q 2.48 20.45 2.48 16.65 L 2.48 16.65 L 2.48 6.7 L 4.98 6.7 L 4.98 16.55 Q 4.98 19.48 6.26 20.83 Q 7.55 22.18 9.9 22.18 L 9.9 22.18 Q 12.28 22.18 13.56 20.83 Q 14.85 19.48 14.85 16.55 L 14.85 16.55 L 14.85 6.7 L 17.28 6.7 L 17.28 16.65 Q 17.28 20.45 15.31 22.43 Q 13.35 24.4 9.88 24.4 Z M 38.15 24.2 L 35.65 24.2 L 35.65 6.7 L 37.7 6.7 L 49.28 21.08 L 48.2 21.08 L 48.2 6.7 L 50.7 6.7 L 50.7 24.2 L 48.65 24.2 L 37.08 9.83 L 38.15 9.83 L 38.15 24.2 Z M 71.7 24.2 L 69.2 24.2 L 69.2 6.7 L 71.7 6.7 L 71.7 24.2 Z M 98.55 24.2 L 90.2 24.2 L 90.2 6.7 L 98.05 6.7 Q 101.08 6.7 102.7 7.91 Q 104.33 9.13 104.33 11.23 L 104.33 11.23 Q 104.33 12.65 103.69 13.63 Q 103.05 14.6 101.98 15.13 Q 100.9 15.65 99.65 15.65 L 99.65 15.65 L 100.1 14.9 Q 101.6 14.9 102.75 15.43 Q 103.9 15.95 104.58 16.96 Q 105.25 17.98 105.25 19.48 L 105.25 19.48 Q 105.25 21.73 103.56 22.96 Q 101.88 24.2 98.55 24.2 L 98.55 24.2 Z M 92.7 8.73 L 92.7 22.18 L 98.45 22.18 Q 100.53 22.18 101.63 21.48 Q 102.73 20.78 102.73 19.28 L 102.73 19.28 Q 102.73 17.75 101.63 17.05 Q 100.53 16.35 98.45 16.35 L 98.45 16.35 L 92.48 16.35 L 92.48 14.33 L 97.83 14.33 Q 99.73 14.33 100.78 13.63 Q 101.83 12.93 101.83 11.53 L 101.83 11.53 Q 101.83 10.13 100.78 9.43 Q 99.73 8.73 97.83 8.73 L 97.83 8.73 L 92.7 8.73 Z M 129.63 24.4 L 129.63 24.4 Q 126.17 24.4 124.2 22.43 Q 122.22 20.45 122.22 16.65 L 122.22 16.65 L 122.22 6.7 L 124.72 6.7 L 124.72 16.55 Q 124.72 19.48 126.01 20.83 Q 127.3 22.18 129.65 22.18 L 129.65 22.18 Q 132.03 22.18 133.31 20.83 Q 134.6 19.48 134.6 16.55 L 134.6 16.55 L 134.6 6.7 L 137.03 6.7 L 137.03 16.65 Q 137.03 20.45 135.06 22.43 Q 133.1 24.4 129.63 24.4 Z M 160.5 24.4 L 160.5 24.4 Q 158.5 24.4 156.68 23.79 Q 154.85 23.18 153.8 22.2 L 153.8 22.2 L 154.72 20.25 Q 155.72 21.13 157.28 21.7 Q 158.83 22.28 160.5 22.28 L 160.5 22.28 Q 162.03 22.28 162.97 21.93 Q 163.93 21.58 164.38 20.96 Q 164.83 20.35 164.83 19.58 L 164.83 19.58 Q 164.83 18.68 164.24 18.13 Q 163.65 17.58 162.71 17.24 Q 161.78 16.9 160.65 16.65 Q 159.53 16.4 158.39 16.06 Q 157.25 15.73 156.31 15.2 Q 155.38 14.68 154.8 13.79 Q 154.22 12.9 154.22 11.5 L 154.22 11.5 Q 154.22 10.15 154.94 9.01 Q 155.65 7.88 157.14 7.19 Q 158.63 6.5 160.93 6.5 L 160.93 6.5 Q 162.45 6.5 163.95 6.9 Q 165.45 7.3 166.55 8.05 L 166.55 8.05 L 165.72 10.05 Q 164.6 9.3 163.35 8.96 Q 162.1 8.63 160.93 8.63 L 160.93 8.63 Q 159.45 8.63 158.5 9 Q 157.55 9.38 157.11 10 Q 156.68 10.63 156.68 11.4 L 156.68 11.4 Q 156.68 12.33 157.26 12.88 Q 157.85 13.43 158.79 13.75 Q 159.72 14.08 160.85 14.34 Q 161.97 14.6 163.11 14.93 Q 164.25 15.25 165.19 15.78 Q 166.13 16.3 166.7 17.18 Q 167.28 18.05 167.28 19.43 L 167.28 19.43 Q 167.28 20.75 166.55 21.89 Q 165.83 23.03 164.31 23.71 Q 162.8 24.4 160.5 24.4 Z" /></g></svg></g></svg>